<?xml version="1.0" encoding="UTF-8" standalone="no"?>
<!DOCTYPE svg PUBLIC "-//W3C//DTD SVG 1.1//EN" "http://www.w3.org/Graphics/SVG/1.1/DTD/svg11.dtd">
<svg xmlns="http://www.w3.org/2000/svg" xmlns:xl="http://www.w3.org/1999/xlink" version="1.1" viewBox="933.1109 622.7664 200 200" width="200pt" height="200pt" xmlns:dc="http://purl.org/dc/elements/1.1/">
  <metadata> Produced by OmniGraffle 7.4.1 
    <dc:date>2020-12-30 14:19:19 +0000</dc:date>
  </metadata>
  <defs/>
  <g stroke="none" stroke-opacity="1" stroke-dasharray="none" fill="none" fill-opacity="1">
    <title>Canvas 1</title>
    <g>
      <title>Layer 1</title>
      <path d="M 1033.1109 628.21094 C 981.0162 628.21094 938.5554 670.6717 938.5554 722.7664 C 938.5554 774.8611 981.0162 817.3218 1033.1109 817.3218 C 1085.2056 817.3218 1127.6663 775.2179 1127.6663 722.7664 C 1127.6663 670.3149 1085.2056 628.21094 1033.1109 628.21094 Z M 1121.6005 722.7664 L 1121.6005 722.7664 C 1121.6005 771.6498 1081.9943 811.256 1033.1109 811.256 C 984.2275 811.256 944.6213 771.6498 944.6213 722.7664 C 944.6213 673.883 984.2275 634.2768 1033.1109 634.2768 C 1081.9943 634.2768 1121.6005 673.883 1121.6005 722.7664 Z M 1078.4173 683.0588 C 1079.8446 684.4861 1081.6286 686.62695 1082.6991 688.0542 L 1101.967 675.9226 C 1100.8965 674.8521 1099.4693 672.71125 1098.3988 671.6408 L 1086.2672 679.4907 L 1085.5536 680.2043 L 1086.2672 679.1339 L 1091.6194 668.4295 L 1087.6945 664.50455 L 1076.9901 669.85674 L 1075.9196 670.5704 L 1076.6333 669.85674 L 1084.4831 657.7251 C 1083.0559 656.6547 1081.6286 655.5842 1079.8446 654.157 L 1067.7129 673.0681 C 1069.1402 674.1385 1071.281 675.9226 1072.7083 676.993 L 1084.1263 670.9272 L 1084.84 670.5704 L 1084.1263 671.284 Z M 1034.8861 658.79554 L 1040.2383 647.0207 L 1040.5951 645.9503 L 1040.5951 647.0207 L 1041.3088 662.7205 C 1043.0928 662.7205 1044.8769 663.0773 1047.0178 663.4341 L 1046.3042 640.5981 C 1043.8065 640.2413 1040.952 640.2413 1038.4543 639.88445 L 1033.4589 652.7297 L 1033.1021 653.80016 L 1032.7453 652.7297 L 1027.7499 639.88445 C 1025.2522 639.88445 1022.3977 640.2413 1019.9 640.5981 L 1019.1864 663.4341 C 1020.9704 663.0773 1023.1113 662.7205 1024.8954 662.7205 L 1025.609 647.0207 L 1025.609 645.9503 L 1025.9658 647.0207 L 1031.318 658.79554 Z M 992.7822 677.3498 C 995.6367 674.1385 997.4208 670.5704 994.5663 667.00224 C 992.7822 665.2182 990.2845 664.8614 987.7868 665.575 L 987.43 665.575 L 987.43 665.2182 C 987.7868 664.1477 988.1436 661.2932 985.646 659.5092 C 984.5755 658.4387 982.7914 658.0819 981.3642 658.4387 C 978.5097 658.79554 976.3688 660.5796 970.303 667.35905 C 968.5189 669.4999 966.0212 672.3544 964.2372 674.4953 L 980.6506 689.8383 C 986.3596 683.77245 988.5004 681.6316 992.7822 677.3498 Z M 971.3734 673.4249 L 971.3734 673.4249 C 974.5847 669.4999 978.1529 665.9318 979.5801 664.50455 C 979.9369 664.1477 980.6506 663.4341 981.3642 663.4341 C 982.4346 663.0773 983.5051 663.7909 983.8619 664.8614 C 984.2187 665.9318 983.5051 667.00224 982.7914 667.7159 C 981.0074 669.4999 974.5847 676.2794 974.5847 676.2794 Z M 977.7961 679.4907 L 977.7961 679.4907 C 977.7961 679.4907 983.8619 673.0681 986.0028 670.9272 C 986.7164 670.21356 987.43 669.4999 987.7868 669.4999 C 988.5004 669.1431 989.2141 669.1431 989.9277 669.4999 C 990.6413 669.85674 990.9981 670.5704 990.6413 671.6408 C 990.2845 672.71125 989.5709 673.4249 989.2141 674.1385 C 988.5004 675.2089 981.0074 682.702 981.0074 683.0588 Z M 1033.1109 666.74674 L 1033.1109 666.74674 C 1002.0682 666.74674 977.0912 692.0805 977.0912 722.7664 L 1033.1109 722.7664 Z M 1089.1305 722.7664 L 1033.1109 722.7664 L 1033.1109 778.786 C 1064.1536 778.786 1089.1305 753.8091 1089.1305 722.7664 Z" fill="#2366b1"/>
    </g>
  </g>
</svg>
